<svg width="2184" height="2184" viewBox="0 0 2184 2184" fill="none" xmlns="http://www.w3.org/2000/svg">
<path d="M1557.64 1800.26V1940.52H1598.67H1639.71V1901.28L1639.86 1862.19L1678.95 1902.18L1718.04 1942.16L1776.69 1941.72L1835.48 1941.27L1790.26 1895.01C1765.49 1869.5 1736.55 1839.95 1725.95 1829.21L1706.7 1809.81L1763.7 1743.41C1795.04 1707 1823.99 1673.28 1828.02 1668.51L1835.48 1660H1782.65L1729.98 1660.15L1685.22 1712.37L1640.45 1764.6L1640 1712.23L1639.71 1660H1598.67H1557.64V1800.26Z" fill="#282828"/>
<path d="M1303.67 1664.03C1300.84 1664.48 1299.2 1665.97 1298 1669.4C1292.63 1684.17 1202.51 1943.96 1202.51 1944.4C1202.51 1944.85 1220.11 1944.85 1241.6 1944.7L1280.55 1944.25L1289.2 1919.63L1297.71 1895.01H1342.17H1386.49L1394.7 1919.19L1402.75 1943.51H1473.33H1544.06L1526.75 1914.11C1517.2 1897.85 1505.26 1877.56 1500.19 1869.05L1490.94 1853.53L1504.67 1839.95C1515.86 1828.76 1519.44 1824.14 1524.51 1813.69C1527.94 1806.68 1531.97 1796.68 1533.32 1791.31C1536.6 1778.77 1536.6 1756.39 1533.17 1743.56C1525.71 1714.02 1504.52 1688.65 1476.32 1674.92C1454.08 1664.03 1453.19 1664.03 1376.34 1663.58C1338.59 1663.43 1305.91 1663.58 1303.67 1664.03ZM1439.16 1736.85C1447.22 1739.23 1457.96 1747.44 1461.25 1753.86C1464.68 1760.27 1465.42 1768.03 1463.63 1774.75C1460.8 1785.34 1447.52 1797.43 1436.92 1798.92C1433.64 1799.52 1432.89 1797.87 1423.34 1770.42C1417.82 1754.45 1412.9 1739.83 1412.3 1737.89C1411.26 1734.76 1411.56 1734.61 1421.55 1734.61C1427.08 1734.61 1435.13 1735.65 1439.16 1736.85ZM1352.47 1795.79C1356.94 1809.21 1360.67 1821 1360.67 1822.05C1360.67 1823.69 1356.8 1824.14 1342.02 1824.14C1331.73 1824.14 1323.37 1823.69 1323.37 1822.94C1323.37 1822.35 1327.55 1809.66 1332.62 1794.74C1338.29 1778.33 1342.32 1768.33 1343.07 1769.52C1343.66 1770.57 1347.84 1782.36 1352.47 1795.79Z" fill="#282828"/>
<path d="M349 1706.26V1748.04H398.241H447.482V1846.52V1945H489.262H531.042V1846.52V1748.04L579.984 1747.74L628.777 1747.29L629.225 1705.81L629.523 1664.48H489.262H349V1706.26Z" fill="#282828"/>
<path d="M757.102 1665.97C703.086 1674.47 657.874 1714.76 642.654 1768.18C639.67 1778.48 639.222 1783.4 639.372 1804.74C639.521 1833.69 641.759 1844.43 652.652 1866.36C678.317 1918.74 736.361 1950.52 793.361 1943.66C855.434 1936.05 902.885 1891.88 915.419 1829.96C918.403 1814.88 917.657 1785.04 913.628 1770.42C900.348 1720.43 861.403 1681.49 812.311 1668.95C798.584 1665.37 770.681 1663.88 757.102 1665.97ZM795.003 1746.4C813.058 1751.92 825.442 1762.81 833.5 1780.27C837.23 1788.18 837.678 1790.71 837.678 1804.74C837.678 1819.51 837.379 1821 832.754 1830.55C809.924 1876.96 745.165 1876.96 723.081 1830.55C718.605 1821.15 718.306 1819.21 718.306 1804.74C718.306 1790.71 718.754 1788.18 722.484 1780.27C730.542 1762.96 741.584 1752.96 759.191 1746.99C771.277 1742.81 783.065 1742.66 795.003 1746.4Z" fill="#282828"/>
<path d="M1054.04 1665.37C1021.21 1670.59 995.994 1682.98 973.761 1704.62C935.264 1741.92 921.835 1795.93 937.95 1847.26C945.112 1869.65 957.348 1889.34 974.955 1905.91C1028.52 1956.94 1112.08 1957.24 1166.7 1906.8C1185.5 1889.34 1199.67 1865.17 1206.54 1839.36C1211.31 1821.3 1211.91 1792.5 1208.03 1775.34C1195.94 1721.92 1155.36 1681.04 1102.24 1668.21C1092.69 1665.82 1062.1 1664.18 1054.04 1665.37ZM1095.82 1749.23C1120.59 1760.87 1135.36 1787.43 1131.18 1812.95C1126.71 1840.25 1107.61 1859.65 1080.6 1864.72C1054.93 1869.5 1027.63 1854.58 1015.84 1829.51C1000.02 1795.79 1019.12 1756.09 1056.28 1745.5C1067.32 1742.37 1084.33 1744.01 1095.82 1749.23Z" fill="#282828"/>
<path d="M324.666 1124.14C329.218 1123.47 666.411 1123.07 1096.67 1123.2L1860.67 1123.34L1872 1126.27C1909.73 1135.73 1938 1151.34 1963.33 1176.67C1989.6 1202.94 2006 1233.74 2014.27 1272C2017.6 1287.6 2017.6 1325.07 2014.27 1341.6C2006.67 1379.6 1987.73 1414 1960.13 1440.4C1933.73 1465.47 1901.07 1482.27 1865.33 1488.94C1853.2 1491.2 1816.8 1491.34 1092 1491.34C373.876 1491.34 330.667 1491.2 319.066 1489.07C272.533 1480.27 231.333 1454.67 203.199 1417.47C192.666 1403.47 178.534 1375.47 174 1359.34C163.467 1322.54 164.399 1282 176.666 1246.8C186.266 1219.33 200 1197.34 220.533 1176.67C248.933 1148.27 285.2 1129.87 324.666 1124.14ZM615 1351C587.386 1351 565 1373.39 565 1401C565 1428.61 587.386 1451 615 1451C642.614 1451 665 1428.61 665 1401C665 1373.39 642.614 1351 615 1351ZM474 1320C440.863 1320 414 1346.86 414 1380C414 1413.14 440.863 1440 474 1440C507.137 1440 534 1413.14 534 1380C534 1346.86 507.137 1320 474 1320ZM1632 1183C1563.52 1183 1508 1238.52 1508 1307C1508 1375.48 1563.52 1431 1632 1431C1685.62 1431 1731.28 1396.97 1748.58 1349.34H1750.67V1343.08C1754.13 1331.67 1756 1319.55 1756 1307C1756 1294.45 1754.13 1282.34 1750.67 1270.92V1265.34H1748.82C1731.71 1217.35 1685.87 1183 1632 1183ZM326 1237C287.34 1237 256 1268.34 256 1307C256 1345.66 287.34 1377 326 1377C364.66 1377 396 1345.66 396 1307C396 1268.34 364.66 1237 326 1237Z" fill="#282828"/>
<circle cx="1632" cy="1307" r="50" fill="#282828"/>
<path d="M1994.8 108C1996.27 108 1997.33 200.267 1997.33 342.134C1997.33 421.334 1997.73 620.4 1998.27 784.267L1999.07 1082.4L2008.53 1089.47C2022 1099.73 2045.73 1123.87 2056.8 1138.67C2094.93 1189.47 2113.33 1244.27 2113.33 1307.07C2113.33 1339.87 2109.6 1364.27 2100 1393.6C2070.8 1482.67 1996.27 1552.27 1905.6 1575.2C1871.33 1584 1905.6 1583.2 1498.4 1583.6L1341.39 1583.77H842.688L685.733 1583.6C338.934 1583.33 315.867 1583.2 304 1580.93C261.733 1573.07 228.267 1560 196 1538.93C127.333 1494.13 82.1328 1421.73 72.1328 1340C69.9995 1323.73 70.4004 1287.87 72.667 1270.4C80.667 1210 108 1154.67 151.333 1111.33C167.2 1095.47 187.867 1079.2 203.467 1070.27L213.2 1064.67L213.6 628.267L214 191.867L229.333 204.8C237.733 211.866 255.334 226.4 268.4 236.934L292 256.134L292.133 431.066C292.133 527.333 292.667 640.533 293.2 682.8L294.133 759.733L299.2 765.867C310.4 779.467 340.534 801.733 362 812C375.6 818.533 390.934 823.733 398.667 824.267L404.667 824.667L404.133 702.267C403.733 629.338 404 580.007 404.8 580C405.466 580 417.466 586 431.333 593.2L456.667 606.267L458.134 726.8C459.067 793.066 459.867 867.866 460 893.066L460.134 938.8L415.733 981.867C391.335 1005.47 370.537 1025.86 369.467 1027.07C367.867 1029.2 369.733 1029.33 396.8 1029.33H426L858.934 611.333C1097.07 381.333 1292.4 193.2 1292.93 193.2C1294.67 193.202 1297.07 215.468 1298.67 245.467C1304.27 349.733 1279.6 456.667 1232.4 532.267C1224.67 544.667 1181.6 590.133 1119.07 652C1066 704.667 1029.6 738.134 980.667 779.467L963.467 794L919.066 794.8L874.533 795.467L868.267 801.467C864.8 804.8 852.133 816.801 840 828.134C827.866 839.467 788.933 876.401 753.333 910.134C717.733 943.867 674.934 984.4 658.134 1000.13L627.733 1028.67L658 1029.07L688.267 1029.33L731.6 987.066C755.333 963.733 800.4 919.6 831.733 889.066L888.667 833.467L934.4 833.333H980.134L1005.73 808.934C1027.87 788 1054.13 763.733 1063.47 755.733C1066.13 753.333 1066.4 753.467 1077.87 766L1089.6 778.667L963.733 904L838 1029.2L1110.4 1029.33C1260.13 1029.33 1382.67 1029.07 1382.67 1028.8C1382.58 1028.19 1102.53 757.732 1089.73 746L1080.93 737.867L1173.2 642.934C1224 590.667 1265.73 548 1266.13 548C1266.54 548.009 1280.54 561.072 1297.07 576.934C1313.73 592.934 1331.47 610 1336.67 614.934L1346 624H1341.33C1322.4 624.133 1303.2 636.801 1294.93 654.4C1291.73 661.067 1291.33 663.733 1291.33 675.333C1291.33 687.2 1291.73 689.467 1295.07 696.267C1307.2 720.8 1338.93 728.533 1362.27 712.533C1375.73 703.333 1382 689.466 1382 669.066V656.134L1407.33 680.934C1421.2 694.667 1436.13 709.2 1440.53 713.467L1448.27 721.066H1438.8C1421.6 721.2 1406.53 731.067 1398.27 747.467C1394 756.133 1393.2 760 1393.2 771.066C1393.2 788.133 1400.53 798 1419.6 807.066C1427.73 810.933 1429.87 811.333 1440.67 811.333C1450.93 811.2 1453.6 810.8 1459.33 807.733C1473.6 800.4 1482 786.4 1483.73 766.934L1484.67 757.2L1517.07 788.134L1549.47 819.2L1543.47 820.667C1530.13 824.134 1518.67 837.067 1518.67 849.066C1518.67 860.533 1526 871.866 1536.53 876.8C1544.8 880.666 1549.47 880.8 1557.33 877.2C1567.73 872.534 1574.67 863.867 1577.07 852.533L1578 847.733L1650 916.8C1689.6 954.933 1729.33 993.067 1738.4 1001.87L1754.67 1017.73V879.467C1754.67 803.467 1755.07 741.333 1755.73 741.333C1756.27 741.333 1785.73 771.067 1821.33 807.467C1865.47 852.4 1887.2 875.6 1889.73 880.267L1893.33 886.934V1035.47L1910.53 1040.13L1927.6 1044.8L1928.27 969.333C1928.67 927.867 1928.4 889.6 1927.73 884.267C1926.4 872.933 1922.4 863.334 1915.2 853.867C1906.8 842.801 1846.27 779.867 1799.6 733.733L1756.27 690.8L1755.87 552.4L1755.6 414L1758.53 404C1768.8 369.333 1779.73 340.4 1792.67 314C1833.73 230.133 1895.47 164.8 1978.67 116.8C1987.06 112.001 1994.4 108.002 1994.8 108ZM1096.67 1085.87C260.67 1085.6 316.4 1085.07 288.667 1092.67C275.334 1096.27 258.133 1102.93 245.6 1109.2C234.133 1115.07 211.467 1130.53 200 1140.53C164 1172 137.467 1218.93 128.533 1267.33C124.667 1287.73 125.067 1331.6 129.2 1350.67C150 1447.33 227.067 1517.33 324.267 1527.87C342.401 1529.87 1841.6 1529.87 1859.73 1527.87C1956.93 1517.33 2034 1447.33 2054.8 1350.67C2058.93 1331.6 2059.33 1287.73 2055.47 1267.33C2046.53 1218.93 2020.4 1172.53 1984.4 1140.93C1955.33 1115.47 1921.07 1098.13 1881.73 1089.07L1868.67 1086L1096.67 1085.87Z" fill="#282828"/>
</svg>
